<?xml version="1.0" encoding="UTF-8" standalone="no"?><!DOCTYPE svg PUBLIC "-//W3C//DTD SVG 1.1//EN" "http://www.w3.org/Graphics/SVG/1.1/DTD/svg11.dtd"><svg width="100%" height="100%" viewBox="0 0 7963 7849" version="1.1" xmlns="http://www.w3.org/2000/svg" xmlns:xlink="http://www.w3.org/1999/xlink" xml:space="preserve" xmlns:serif="http://www.serif.com/" style="fill-rule:evenodd;clip-rule:evenodd;stroke-linejoin:round;stroke-miterlimit:1.41421;"><rect id="Artboard2" x="0" y="0" width="7962.34" height="7849" style="fill:none;"/><clipPath id="_clip1"><rect id="Artboard21" serif:id="Artboard2" x="0" y="0" width="7962.34" height="7849"/></clipPath><g clip-path="url(#_clip1)"><rect x="0" y="2616" width="3955" height="2616"/><rect x="0" y="0" width="3955" height="2616"/><rect x="1361.77" y="699.5" width="783.006" height="225" style="fill:#fff;"/><rect x="1919.78" y="979" width="723" height="225" style="fill:#fff;"/><rect x="2116.44" y="1258.5" width="348.337" height="225" style="fill:#fff;"/><path d="M1642.44,979l0,658l225,0l0,-658l-225,0Z" style="fill:#fff;"/><path d="M1919.78,1258.5l0,658l225,0l0,-658l-225,0Z" style="fill:#fff;"/><path d="M1883.13,3321.22l660,1l0,225l-545,0l-115,-226Z" style="fill:#fff;"/><path d="M1411.87,3820.78l320,0l-2,706l225,0l2,-931l-545,0l0,225Z" style="fill:#fff;"/><path d="M2543.13,3820.78l-320,0l2,706l-225,0l-2,-931l545,0l0,225Z" style="fill:#fff;"/><rect x="0" y="5232" width="3955" height="2616"/><path d="M1416.01,5878.92l536.72,94.638l0,228.471l-536.72,-94.638l0,-228.471Z" style="fill:#fff;"/><path d="M1416.01,6389.9l315.138,55.567l-1.969,716.544l221.581,39.071l1.97,-945.015l-536.72,-94.638l0,228.471Z" style="fill:#fff;"/><path d="M2538.99,5878.92l-536.72,94.638l0,228.471l536.72,-94.638l0,-228.471Z" style="fill:#fff;"/><path d="M2538.99,6389.9l-315.138,55.567l1.969,716.544l-221.581,39.071l-1.97,-945.015l536.72,-94.638l0,228.471Z" style="fill:#fff;"/><rect x="5316.77" y="673.21" width="783.006" height="225" style="fill:#0081d5;"/><rect x="5874.78" y="952.71" width="723" height="225" style="fill:#ff9947;"/><rect x="6071.44" y="1232.21" width="348.337" height="225" style="fill:#4d4d4d;"/><path d="M5597.44,952.71l0,658l225,0l0,-658l-225,0Z" style="fill:#a939b9;"/><path d="M5874.78,1232.21l0,658l225,0l0,-658l-225,0Z" style="fill:#4d4d4d;"/><path d="M5838.13,3294.93l660,1l0,225l-545,0l-115,-226Z" style="fill:#ff9947;"/><path d="M5366.87,3794.49l320,0l-2,706l225,0l2,-931l-545,0l0,225Z" style="fill:#a939b9;"/><path d="M6498.13,3794.49l-320,0l2,706l-225,0l-2,-931l545,0l0,225Z" style="fill:#4d4d4d;"/><path d="M5371.01,5852.63l536.72,94.639l0,228.471l-536.72,-94.639l0,-228.471Z" style="fill:#0081d5;"/><path d="M5371.01,6363.61l315.138,55.568l-1.969,716.544l221.581,39.071l1.97,-945.015l-536.72,-94.639l0,228.471Z" style="fill:#a939b9;"/><path d="M6493.99,5852.63l-536.72,94.639l0,228.471l536.72,-94.639l0,-228.471Z" style="fill:#ff9947;"/><path d="M6493.99,6363.61l-315.138,55.568l1.969,716.544l-221.581,39.071l-1.97,-945.015l536.72,-94.639l0,228.471Z" style="fill:#4d4d4d;"/></g></svg>