<?xml version="1.0" encoding="UTF-8" standalone="no"?><!DOCTYPE svg PUBLIC "-//W3C//DTD SVG 1.1//EN" "http://www.w3.org/Graphics/SVG/1.1/DTD/svg11.dtd"><svg width="100%" height="100%" viewBox="0 0 1200 1200" version="1.1" xmlns="http://www.w3.org/2000/svg" xmlns:xlink="http://www.w3.org/1999/xlink" xml:space="preserve" xmlns:serif="http://www.serif.com/" style="fill-rule:evenodd;clip-rule:evenodd;stroke-linecap:round;stroke-linejoin:round;stroke-miterlimit:1.5;"><rect id="Artboard1" x="0" y="0" width="1200" height="1200" style="fill:none;"/><clipPath id="_clip1"><rect x="0" y="0" width="1200" height="1200"/></clipPath><g clip-path="url(#_clip1)"><rect x="-360" y="0" width="1920" height="1200" style="fill:#a41937;"/><g><path d="M527.976,665.398c-65.57,-28.115 -111.281,-93.534 -112.362,-169.658c-1.876,-132.149 42.477,-275.376 55,-275.239l262.291,1c10.895,-0.664 54.087,131.3 51.42,274.239c-1.371,73.486 -43.865,137.002 -105.708,166.608c-0.073,0.072 -0.199,0.133 -0.38,0.181l-0.02,0.009c-8.296,3.947 -16.938,7.284 -25.874,9.954c-18.478,8.073 -39.011,21.531 -39.609,47.007c-1.371,58.363 -1.845,180.734 2,202c3.844,21.266 23.528,44.014 87,44l28,0l0,14l-259.468,0l0,-14l28,0c63.472,0.014 83.156,-22.734 87,-44c3.845,-21.266 3.371,-143.637 2,-202c-0.684,-29.145 -24.033,-40.985 -42.068,-47.729c-4.472,-1.401 -8.868,-2.969 -13.183,-4.697c-1.39,-0.522 -2.629,-1.025 -3.682,-1.522c-0.147,-0.039 -0.265,-0.091 -0.357,-0.153Z" style="fill:#fff;stroke:#000;stroke-width:10px;"/><path d="M556,220.501l176.905,0.506c10.895,-0.664 54.087,131.3 51.42,274.24c-1.371,73.486 -43.865,137.002 -105.708,166.607c-0.073,0.073 -0.199,0.134 -0.38,0.182l-0.02,0.009c-8.296,3.947 -16.938,7.284 -25.874,9.953c-18.478,8.074 -39.011,21.531 -39.609,47.008c-1.371,58.362 -1.845,180.734 2,202c3.844,21.265 23.527,44.013 87,44l28,0l0,14l-129.734,0l0,-286.594c-116.403,-163.402 -116.825,-276.979 -44,-471.911Z" style="fill:#f2f2f2;"/><path d="M665.79,221.245l67.115,-0.238c10.895,-0.664 54.087,131.3 51.42,274.24c-1.371,73.486 -43.865,137.002 -105.708,166.607c-0.073,0.073 -0.199,0.134 -0.38,0.182l-0.02,0.009c-8.296,3.947 -16.938,7.284 -25.874,9.953c-18.478,8.074 -39.011,21.531 -39.609,47.008c-1.371,58.362 -1.845,180.734 2,202c3.844,21.265 23.527,44.013 87,44l28,0l0,14l-129.734,0l0,-286.594c158.515,-23.637 168.802,-348.824 65.79,-471.167Z" style="fill:#e6e6e6;"/><path d="M700.533,221.122l32.372,-0.115c10.895,-0.664 54.087,131.3 51.42,274.24c-1.371,73.486 -43.865,137.002 -105.708,166.607c-0.073,0.073 -0.199,0.134 -0.38,0.182l-0.02,0.009c-8.296,3.947 173.406,-160.952 22.316,-440.923Z" style="fill:#d9d9d9;"/><path d="M527.976,665.398c-65.57,-28.115 -111.281,-93.534 -112.362,-169.658c-1.876,-132.149 42.477,-275.376 55,-275.239l262.291,1c10.895,-0.664 54.087,131.3 51.42,274.239c-1.371,73.486 -43.865,137.002 -105.708,166.608c-0.073,0.072 -0.199,0.133 -0.38,0.181l-0.02,0.009c-8.296,3.947 -16.938,7.284 -25.874,9.954c-18.478,8.073 -39.011,21.531 -39.609,47.007c-1.371,58.363 -1.845,180.734 2,202c3.844,21.266 23.528,44.014 87,44l28,0l0,14l-259.468,0l0,-14l28,0c63.472,0.014 83.156,-22.734 87,-44c3.845,-21.266 3.371,-143.637 2,-202c-0.684,-29.145 -24.033,-40.985 -42.068,-47.729c-4.472,-1.401 -8.868,-2.969 -13.183,-4.697c-1.39,-0.522 -2.629,-1.025 -3.682,-1.522c-0.147,-0.039 -0.265,-0.091 -0.357,-0.153Z" style="fill:none;stroke:#000;stroke-width:10px;"/><path d="M524.3,488.582c0,0 103.943,-42.767 240.364,-16.395c0,0 -65.383,193.725 -240.364,16.395Z" style="fill:#792134;stroke:#000;stroke-width:6px;"/><path d="M764.664,472.187c0.882,6.943 1.336,14.019 1.336,21.201c0,92.169 -74.83,167 -167,167c-92.17,0 -167,-74.831 -167,-167c0,-7.182 0.454,-14.258 1.336,-21.201c187.196,36.191 310.118,42.075 331.328,0Z" style="fill:#cc284c;stroke:#000;stroke-width:6px;"/><path d="M459.484,477.121c0,0 -14.02,83.956 76.049,145.267c0,0 -53.007,-54.862 -39.003,-138.739l-37.046,-6.528Z" style="fill:#ff87a1;"/><path d="M573.05,658.38c0,0 89.034,-35.453 90.42,-156.819c0,0 23.445,2.463 66.053,-6.331c0,0 17.202,-3.966 26.395,-12.352c9.194,-8.387 9.077,-7.899 9.077,-7.899c0,0 6.447,73.331 -27.633,111.902c-34.08,38.571 -34.486,46.856 -100.016,69.075c0,0 -36.627,7.813 -64.296,2.424Z" style="fill:#a41937;"/><path d="M623.448,658.26c0,0 96.351,-41.056 96.301,-160.797c0,0 42.235,-14.36 44.915,-25.276c0,0 6.969,37.445 -5.621,71.007c0,0 -11.667,47.933 -53.744,79.194c0,0 -10.62,21.466 -81.851,35.872Z" style="fill:#84182f;"/><path d="M663.514,648.651c34.887,-28.92 116.666,-127.079 99.071,-145.302c9.037,3.155 -14.684,109.085 -99.071,145.302Z" style="fill:#ff87a1;"/><path d="M764.664,472.187c0.882,6.943 1.336,14.019 1.336,21.201c0,92.169 -74.83,167 -167,167c-92.17,0 -167,-74.831 -167,-167c0,-7.182 0.454,-14.258 1.336,-21.201c187.196,36.191 310.118,42.075 331.328,0Z" style="fill:none;stroke:#000;stroke-width:6px;"/><path d="M746.04,244.307l-122.592,1.081c0,0 91.213,4.204 127.2,11.506l-4.608,-12.587Z"/><path d="M506.053,970.388c0,0 93.651,-1.324 93.947,-1c0.296,0.323 -29.142,-2.255 -50.467,-8l-43.48,9Z"/></g><text x="54px" y="844.649px" style="font-family:'AvenirNextCondensed-Regular', 'Avenir Next Condensed', sans-serif;font-stretch:condensed;font-size:833.672px;fill:#fff;">{</text><path d="M1016.78,965.599c28.9,0 50.02,-10.004 63.359,-30.012c13.339,-20.008 20.008,-49.186 20.008,-87.535l0,-145.893c0,-33.347 4.307,-55.439 12.922,-66.277c8.615,-10.838 19.591,-16.257 32.93,-16.257l0,-48.353c-13.339,0 -24.315,-5.418 -32.93,-16.256c-8.615,-10.838 -12.922,-32.93 -12.922,-66.277l0,-145.893c0,-38.349 -6.669,-67.527 -20.008,-87.535c-13.339,-20.008 -34.459,-30.013 -63.359,-30.013l-42.517,0l0,45.019l29.178,0c17.785,0 29.734,6.808 35.848,20.425c6.114,13.616 9.17,31.818 9.17,54.605l0,150.895c0,17.229 1.529,31.818 4.586,43.768c3.056,11.949 7.086,21.675 12.088,29.178c5.002,7.503 10.699,13.339 17.09,17.507c6.392,4.169 12.644,6.809 18.758,7.92l0,1.668c-6.114,1.111 -12.366,3.751 -18.758,7.92c-6.391,4.168 -12.088,10.004 -17.09,17.507c-5.002,7.503 -9.032,17.229 -12.088,29.178c-3.057,11.949 -4.586,26.539 -4.586,43.768l0,150.895c0,22.787 -3.056,40.989 -9.17,54.605c-6.114,13.617 -18.063,20.425 -35.848,20.425l-29.178,0l0,45.018l42.517,0Z" style="fill:#fff;fill-rule:nonzero;"/></g></svg>